<svg width="512" height="512" xmlns="http://www.w3.org/2000/svg" xmlns:xlink="http://www.w3.org/1999/xlink" xml:space="preserve" overflow="hidden">

    <g fill="#F58025" fill-rule="evenodd" stroke="#F58025" stroke-width="0" stroke-miterlimit="8">
        <g id="StackOverflow_Logo">
            <path d="M 440 345 L 476 345 L 476 490 L 150 490 L 150 345 L 187 345 L 187 453 L 440 453 Z" fill="#BBBBBB" />
            <path d="M 226 334 L 404 372 L 412 336 L 234 298 L 226 334 Z M 250 249 L 415 325 L 430 292 L 265 216 L 250 249 Z M 295 168 L 435 283 L 458 256 L 319 139 L 295 168 Z M 386 82 L 357 103 L 465 249 L 494 227 L 386 82 Z M 223 418 L 404 418 L 404 381 L 223 381 L 223 418 Z" />
        </g>
        <g id="Arrow">
            <path d="M 98 477 L 98 256 L 136 293 C 141 297 148 297 153 292 C 158 288 158 280 153 275 L 94 217 C 89 211 83 211 78 217 L 19 275 C 13 280 13 288 19 293 C 24 297 32 297 36 293 L 74 256 L 74 477 C 74 484 79 490 85 490 C 93 490 98 484 98 477 Z" stroke-width="2" />
        </g>
        <g id="User_Logo">
            <!-- <path d="M 126 49 C 126 69 110 85 89 85 C 69 85 52 69 52 49 C 52 28 69 11 89 11 C 110 11 126 28 126 49 Z" /> -->
            <circle cx="89" cy="49" r="38.5" />
            <path d="M 164 170 L 164 133 C 164 120 140 95 89 95 C 37 95 15 120 15 133 L 15 170 L 164 170 Z" />
        </g>
    </g>
</svg>